<svg xmlns="http://www.w3.org/2000/svg" viewBox="0 0 1608.25 408.82"><defs><style>.cls-1{fill:#dbccaf;}</style></defs><g id="Calque_2" data-name="Calque 2"><g id="Calque_1-2" data-name="Calque 1"><path class="cls-1" d="M309.59,246.07H373a41.67,41.67,0,0,0,0-83.34H309.44l92.73-91.11a41.66,41.66,0,0,0-58.4-59.44l-94.51,92.87V42.23a41.67,41.67,0,1,0-83.34,0v63l-94.86-93A41.66,41.66,0,1,0,12.72,71.65l92.88,91.08H41.89a41.67,41.67,0,0,0,0,83.34h63.56l-92.7,90.72A41.67,41.67,0,1,0,71,396.35l94.89-92.87v63.09a41.67,41.67,0,1,0,83.34,0v-63l94.54,92.71a41.66,41.66,0,0,0,58.34-59.5Z"/><circle cx="207.59" cy="41.49" r="41.34"/><circle cx="207.59" cy="367.01" r="41.34"/><circle cx="41.37" cy="204.4" r="41.34"/><circle cx="373.76" cy="204.4" r="41.34"/><circle cx="373.52" cy="366.86" r="41.34"/><circle cx="41.34" cy="366.86" r="41.34"/><circle cx="41.34" cy="41.34" r="41.34"/><circle cx="373.52" cy="41.34" r="41.34"/><circle cx="207.57" cy="204.25" r="41.34"/><path d="M717.14,169.31c-10,10.95-25.85,16.77-48.44,16.77H540.84V2.09H664.5c22.59,0,37.5,5.83,45.88,14.21,7.45,7.45,11.18,17.93,11.18,31.21,0,13.74-3,24-10,31.67-4.66,5.13-13.28,9.55-20.73,10.71,10.71,1.17,22.36,7.46,29.11,15.61,5.82,6.75,8.85,17.47,8.85,29.81C728.78,148.12,724.59,161.39,717.14,169.31ZM662.41,58.46c0-5.36-1.63-10-4.66-12.81-3-3-8.15-4.2-14.91-4.2H596.5V75.69h48.44c5.59,0,10.25-1.4,13.27-4.66C660.78,68.24,662.41,64,662.41,58.46ZM665,142.53c3-2.56,4.19-6.75,4.19-11.88,0-5.82-.93-10.71-4.42-13.74-3.26-3-8.16-4.42-14.21-4.42h-54v34.23h53.56C656.35,146.72,661.71,145.56,665,142.53Z"/><path d="M801.91,147l-14.44,39.13H728.78L801,2.09h72.43l67.54,184H881.33L867.82,147Zm52.87-38.66L839.64,64.51l-3.72-15.37L832.19,65l-16.3,43.31Z"/><path d="M1108.64,2.09l-74.53,123v61h-57V125.53l-72-123.44h61l39.82,71.74,43.55-71.74Z"/><path d="M1275.63,186.08H1117.26V2.09h157.2V45.41H1172.92V72.2h97.82V116h-97.82v27.25h102.71Z"/><path d="M1472.08,130.12c0,35.39-30.33,56.76-88.69,56.76-57.44,0-81.56-17.47-88.92-42-1.83-6.21-2.52-15.63-2.52-18.84h57.9a28.86,28.86,0,0,0,2.76,10.57c3.9,6.89,13.78,10.11,32.85,10.11,21.83,0,29.18-4.83,29.18-14.25,0-11.26-9.88-14-32.62-17.92-7.59-1.38-22.29-3.68-26.66-4.37-40-6.66-62.95-20.91-62.95-55.83,0-31.48,31.25-54.22,87.54-54.22,51,0,74.44,16.31,84.09,40.89A58.41,58.41,0,0,1,1468.18,60h-57.9a20.59,20.59,0,0,0-2.3-8.73c-3.22-7.12-11.49-11-29-11-22.75,0-28.49,4.36-28.49,12.4,0,10.8,14,14.25,41.36,18.84,7.12,1.15,17,3,24.58,4.37C1453,82.33,1472.08,96.81,1472.08,130.12Z"/><path d="M599.29,406.26H541.07v-184h58.22Z"/><path d="M842.67,406.26H789.8V302.39L756.5,406.26H707.82l-33.3-103.87V406.26h-53.1v-184h75.69L732.28,332.9l37.26-110.62h73.13Z"/><path d="M1043.19,285.62c0,20.5-4.66,34.7-13.51,44.72-10.94,12.11-28.41,18.16-51.23,18.63-7,.23-57.06-.23-57.06-.23v57.52H864.33v-184H978.21c22.36,0,37.73,5.35,48.45,15.37C1036.9,247.43,1043.19,262.8,1043.19,285.62Zm-57.06,1.17c0-5.83-.7-10.48-2.33-13.05-3.26-5.82-8.61-8.61-17.93-8.61H920.69v42.38h44.48c10.72,0,16.07-3.49,18.87-8.61C985.67,295.63,986.13,292.14,986.13,286.79Z"/><path d="M1098.79,367.13l-14.44,39.13h-58.69l72.19-184h72.43l67.54,184H1178.2l-13.51-39.13Zm52.86-38.66-15.14-43.78-3.72-15.37-3.73,15.83-16.3,43.32Z"/><path d="M1427.48,334.06c-.47,7.46-1.63,21.66-7.22,33.07-13,27-38.66,41.69-88.27,41.69-34.24,0-59.15-7.45-75.22-23.29-15.38-15.37-22.83-38.89-22.83-71.5,0-29.34,7-51.93,21-67.54,16.3-17.7,41.69-26.78,78.25-26.78,56.37,0,81,21,89.2,46.82,3.5,10.71,4.66,23.52,4.66,30.74h-57.52a40.07,40.07,0,0,0-4.9-19.1c-5.35-9.32-14-14-32.13-14-15.37,0-25.16,4.19-31.44,13-5.83,7.91-7.92,20.72-7.92,37.49,0,19.33,2.79,31.21,8.85,38.9,7,9.08,18.16,12.11,31,12.11,16.77,0,25.85-5.13,30.74-11.88,4.43-5.82,5.83-12.11,6.29-19.8Z"/><path d="M1608.25,266.53h-59.16V406.26h-57.76V266.53h-58.68V222.28h175.6Z"/></g></g></svg>