<svg xmlns="http://www.w3.org/2000/svg" viewBox="0 0 1608.02 408.75"><defs><style>.cls-1{fill:#fff;}</style></defs><g id="Calque_2" data-name="Calque 2"><g id="Calque_1-2" data-name="Calque 1"><path class="cls-1" d="M309.36,246h63.39a41.67,41.67,0,0,0,0-83.33H309.22L402,71.55a41.67,41.67,0,1,0-58.41-59.44L249,105V42.15a41.67,41.67,0,1,0-83.33,0v63l-94.86-93a41.67,41.67,0,0,0-58.35,59.5l92.88,91.08H41.67a41.67,41.67,0,1,0,0,83.33h63.56L12.52,336.72a41.67,41.67,0,0,0,58.29,59.55L165.7,303.4v63.1a41.67,41.67,0,0,0,83.33,0v-63l94.54,92.71a41.67,41.67,0,0,0,58.35-59.5Z"/><path class="cls-1" d="M716.91,169.24c-10,10.94-25.85,16.76-48.44,16.76H540.61V2H664.28c22.59,0,37.49,5.82,45.88,14.21,7.45,7.45,11.18,17.93,11.18,31.2,0,13.74-3,24-10,31.68-4.66,5.12-13.27,9.55-20.72,10.71a46.8,46.8,0,0,1,29.11,15.6c5.82,6.76,8.85,17.47,8.85,29.81C728.56,148,724.36,161.32,716.91,169.24ZM662.18,58.38c0-5.36-1.63-10-4.66-12.81-3-3-8.15-4.19-14.9-4.19H596.27V75.61h48.45C650.3,75.61,655,74.22,658,71,660.55,68.16,662.18,64,662.18,58.38Zm2.56,84.07c3-2.56,4.2-6.75,4.2-11.87,0-5.83-.93-10.72-4.43-13.74-3.26-3-8.15-4.43-14.21-4.43h-54v34.24h53.57C656.13,146.65,661.48,145.48,664.74,142.45Z"/><path class="cls-1" d="M801.69,146.88,787.25,186H728.56L800.76,2h72.43l67.53,184H881.1l-13.5-39.12Zm52.87-38.66L839.42,64.43l-3.73-15.37L832,64.9l-16.3,43.32Z"/><path class="cls-1" d="M1108.41,2l-74.52,123v61H976.83V125.45L904.87,2h61l39.83,71.73L1049.26,2Z"/><path class="cls-1" d="M1275.4,186H1117V2h157.21V45.34H1172.7V72.12h97.81V115.9H1172.7v27.25h102.7Z"/><path class="cls-1" d="M1471.86,130.05c0,35.38-30.33,56.75-88.69,56.75-57.44,0-81.57-17.46-88.92-42.05-1.84-6.2-2.53-15.62-2.53-18.84h57.9a28.81,28.81,0,0,0,2.76,10.57c3.91,6.89,13.79,10.11,32.86,10.11,21.83,0,29.18-4.83,29.18-14.25,0-11.25-9.88-14-32.63-17.92-7.58-1.38-22.29-3.67-26.65-4.36-40-6.67-63-20.91-63-55.84,0-31.47,31.25-54.22,87.54-54.22,51,0,74.45,16.31,84.1,40.9A58.52,58.52,0,0,1,1468,60h-57.9a20.52,20.52,0,0,0-2.3-8.73c-3.21-7.13-11.48-11-29-11-22.74,0-28.49,4.36-28.49,12.41,0,10.79,14,14.24,41.36,18.84,7.12,1.14,17,3,24.59,4.36C1452.79,82.26,1471.86,96.73,1471.86,130.05Z"/><path class="cls-1" d="M599.07,406.18H540.84v-184h58.23Z"/><path class="cls-1" d="M842.44,406.18H789.58V302.31L756.27,406.18H707.6L674.29,302.31V406.18h-53.1v-184h75.69l35.17,110.62L769.31,222.2h73.13Z"/><path class="cls-1" d="M1043,285.55c0,20.49-4.66,34.7-13.51,44.71-11,12.11-28.41,18.17-51.24,18.63-7,.24-57.06-.23-57.06-.23v57.52H864.1v-184H978c22.36,0,37.73,5.35,48.44,15.37C1036.68,247.35,1043,262.72,1043,285.55Zm-57.06,1.16c0-5.82-.7-10.48-2.33-13-3.26-5.82-8.62-8.62-17.93-8.62H920.46v42.39H965c10.71,0,16.07-3.49,18.86-8.62C985.44,295.56,985.91,292.07,985.91,286.71Z"/><path class="cls-1" d="M1098.56,367.06l-14.44,39.12h-58.69l72.2-184h72.43l67.54,184H1178l-13.51-39.12Zm52.87-38.66-15.14-43.79-3.73-15.37-3.72,15.84-16.31,43.32Z"/><path class="cls-1" d="M1427.25,334c-.46,7.45-1.63,21.65-7.22,33.07-13,27-38.66,41.69-88.26,41.69-34.24,0-59.16-7.46-75.23-23.3-15.37-15.37-22.82-38.89-22.82-71.49,0-29.35,7-51.94,21-67.54,16.3-17.7,41.69-26.78,78.25-26.78,56.36,0,81,21,89.2,46.81,3.49,10.71,4.66,23.52,4.66,30.74h-57.53a40.18,40.18,0,0,0-4.89-19.1c-5.36-9.31-14-14-32.14-14-15.37,0-25.15,4.19-31.44,13-5.82,7.92-7.92,20.73-7.92,37.5,0,19.33,2.8,31.2,8.85,38.89,7,9.08,18.17,12.11,31,12.11,16.76,0,25.85-5.12,30.74-11.88,4.42-5.82,5.82-12.11,6.29-19.79Z"/><path class="cls-1" d="M1608,266.45h-59.15V406.18h-57.76V266.45h-58.69V222.2H1608Z"/></g></g></svg>